<?xml version="1.0" encoding="UTF-8"?>
<!-- Generated by Pixelmator Pro 3.6.17 -->
<svg width="256" height="256" viewBox="0 0 256 256" xmlns="http://www.w3.org/2000/svg">
    <filter id="filter1" x="0" y="0" width="256" height="256" filterUnits="userSpaceOnUse" primitiveUnits="userSpaceOnUse" color-interpolation-filters="sRGB">
        <feGaussianBlur stdDeviation="33"/>
        <feOffset dx="-0" dy="0" result="offsetblur"/>
        <feFlood flood-color="#000000" flood-opacity="0.558612"/>
        <feComposite in2="offsetblur" operator="in"/>
        <feMerge>
            <feMergeNode/>
            <feMergeNode in="SourceGraphic"/>
        </feMerge>
    </filter>
    <path id="Rounded-Rectangle" fill="#fafbfc" fill-rule="evenodd" stroke="none" filter="url(#filter1)" d="M 29 136.25 C 29 169.651367 29 186.352051 36.012718 198.874176 C 40.968918 207.724091 48.275906 215.031082 57.125832 219.987274 C 69.647949 227 86.348633 227 119.75 227 L 136.25 227 C 169.651367 227 186.352051 227 198.874161 219.987274 C 207.724091 215.031082 215.031082 207.724091 219.987274 198.874176 C 227 186.352051 227 169.651367 227 136.25 L 227 119.75 C 227 86.348633 227 69.647949 219.987274 57.125839 C 215.031082 48.275909 207.724091 40.968918 198.874161 36.012726 C 186.352051 29 169.651367 29 136.25 29 L 119.75 29 C 86.348633 29 69.647949 29 57.125832 36.012726 C 48.275906 40.968918 40.968918 48.275909 36.012718 57.125839 C 29 69.647949 29 86.348633 29 119.75 Z"/>
    <text id="PH" xml:space="preserve" x="46" y="174" font-family="Songti SC" font-size="113" font-weight="800" fill="#2c3e50">PH</text>
</svg>
